<?xml version="1.0" encoding="UTF-8"?>
<svg version="1.1" xmlns="http://www.w3.org/2000/svg" width="1536" height="1024">
<path d="M0 0 C506.88 0 1013.76 0 1536 0 C1536 337.92 1536 675.84 1536 1024 C1029.12 1024 522.24 1024 0 1024 C0 686.08 0 348.16 0 0 Z " fill="#ECE7E1" transform="translate(0,0)"/>
<path d="M0 0 C7.07032962 6.31554498 11.32997492 15.6303815 12.21875 24.984375 C12.5741127 37.51558596 7.18391012 49.16202349 -1.33203125 58.2890625 C-9.55782914 65.97250009 -19.99264396 69.4741182 -31.01953125 70.4765625 C-25.63596477 77.81261964 -19.56553229 84.38610421 -13.36767578 91.02392578 C-3.44134551 101.71962754 5.81448686 113.12965647 14.98046875 124.4765625 C15.4614502 125.06179688 15.94243164 125.64703125 16.43798828 126.25 C17.98247505 128.13049921 19.51359295 130.02126337 21.04296875 131.9140625 C21.5328125 132.50566162 22.02265625 133.09726074 22.52734375 133.70678711 C25.15863251 136.9944844 25.98046875 138.11956241 25.98046875 142.4765625 C19.28623902 145.37136455 12.35440247 145.29096029 5.35546875 143.6015625 C-3.27104381 138.17005459 -8.67517962 129.24384176 -14.3659668 121.00610352 C-19.00492475 114.35090709 -24.13168397 108.25782365 -29.50634766 102.19140625 C-32.10255314 99.24920758 -34.65438478 96.26904752 -37.20703125 93.2890625 C-37.70251465 92.7108374 -38.19799805 92.1326123 -38.70849609 91.53686523 C-52.00106192 75.99210729 -52.00106192 75.99210729 -54.01953125 71.4765625 C-56.65953125 71.4765625 -59.29953125 71.4765625 -62.01953125 71.4765625 C-62.01953125 94.5765625 -62.01953125 117.6765625 -62.01953125 141.4765625 C-65.99254374 143.0657675 -68.42373545 143.83539099 -72.51953125 144.2265625 C-73.43734375 144.32453125 -74.35515625 144.4225 -75.30078125 144.5234375 C-78.01953125 144.4765625 -78.01953125 144.4765625 -83.01953125 142.4765625 C-83.01953125 92.6465625 -83.01953125 42.8165625 -83.01953125 -8.5234375 C-74.43953125 -8.8534375 -65.85953125 -9.1834375 -57.01953125 -9.5234375 C-37.05717923 -11.5196727 -16.84370608 -12.70608389 0 0 Z " fill="#020201" transform="translate(760.01953125,442.5234375)"/>
<path d="M0 0 C2.8125 -0.25 2.8125 -0.25 6 0 C8.62592502 2.54579461 9.78687043 5.56878565 11.09375 8.9453125 C11.66984009 10.41436035 11.66984009 10.41436035 12.25756836 11.91308594 C12.87257202 13.5029834 12.87257202 13.5029834 13.5 15.125 C16.87979561 23.71107446 20.32303748 32.25992603 23.9375 40.75 C24.38182373 41.79373779 24.82614746 42.83747559 25.28393555 43.9128418 C26.28192424 46.25656985 27.28006228 48.60023431 28.27832031 50.94384766 C30.24738205 55.57585706 32.19764981 60.21574065 34.1484375 64.85546875 C46.25924719 93.64547323 58.58771557 122.3387803 71 151 C67.63289958 154.52015044 65.62712426 155.17093894 60.6875 155.28320312 C59.6665625 155.29770508 59.6665625 155.29770508 58.625 155.3125 C57.95210937 155.34150391 57.27921875 155.37050781 56.5859375 155.40039062 C53.47502873 155.44019556 51.39837465 155.25724018 48.76171875 153.5546875 C46.22656817 149.8784381 44.75227678 145.97855604 43.1875 141.8125 C42.48774246 140.0075164 41.78720802 138.20283382 41.0859375 136.3984375 C40.73756836 135.49319336 40.38919922 134.58794922 40.03027344 133.65527344 C38.50681676 129.72894291 36.91800555 125.83087318 35.3125 121.9375 C35.02777832 121.24430664 34.74305664 120.55111328 34.44970703 119.83691406 C32.37949405 114.83039086 30.17166059 109.89851346 27.84765625 105.00390625 C27 103 27 103 27 101 C6.87 101 -13.26 101 -34 101 C-34.99 103.97 -35.98 106.94 -37 110 C-37.63026765 111.59095625 -38.28339448 113.17343366 -38.97705078 114.73779297 C-39.33397003 115.54828094 -39.69088928 116.35876892 -40.05862427 117.19381714 C-40.62128494 118.45526047 -40.62128494 118.45526047 -41.1953125 119.7421875 C-41.58822479 120.63237579 -41.98113708 121.52256409 -42.38595581 122.43972778 C-43.62849133 125.25319005 -44.87645311 128.06420096 -46.125 130.875 C-47.37972762 133.70763537 -48.63329617 136.54077594 -49.88546753 139.37454224 C-50.6617018 141.13040114 -51.43957543 142.88553644 -52.2192688 144.63986206 C-52.56988373 145.43143707 -52.92049866 146.22301208 -53.28173828 147.03857422 C-53.59023712 147.73312714 -53.89873596 148.42768005 -54.21658325 149.14328003 C-54.88701947 150.73223292 -55.4546326 152.3638978 -56 154 C-59.3 154 -62.6 154 -66 154 C-65.42924763 150.69668522 -64.64409125 147.9001967 -63.19921875 144.87890625 C-62.80943848 144.04987793 -62.4196582 143.22084961 -62.01806641 142.36669922 C-61.57897949 141.44131348 -61.13989258 140.51592773 -60.6875 139.5625 C-54.95032191 127.26011778 -49.52415506 114.82874938 -44.125 102.375 C-43.68865234 101.36884644 -43.25230469 100.36269287 -42.80273438 99.3260498 C-40.64516662 94.34982056 -38.48949597 89.37277385 -36.33544922 84.39501953 C-34.34329476 79.79164879 -32.34686459 75.19015465 -30.34765625 70.58984375 C-22.73631457 53.06967985 -15.20641982 35.51497286 -7.69189453 17.953125 C-5.1305737 11.96761716 -2.56525249 5.98382365 0 0 Z " fill="#020202" transform="translate(874,432)"/>
<path d="M0 0 C1.69382812 0.27457031 1.69382812 0.27457031 3.421875 0.5546875 C6.25 1.125 6.25 1.125 8.25 2.125 C8.26030746 2.95960754 8.27061493 3.79421509 8.28123474 4.65411377 C8.38119249 12.7073845 8.48389855 20.7606152 8.58933926 28.81381607 C8.64339727 32.94926616 8.69656321 37.08472275 8.74731445 41.22021484 C8.88657473 52.52231279 9.04889937 63.82382226 9.25 75.125 C9.2647361 75.95661652 9.2794722 76.78823303 9.29465485 77.64505005 C9.38483354 82.62018461 9.48754436 87.59484258 9.60585213 92.56938934 C9.64150434 94.11386374 9.67426587 95.65840812 9.70385551 97.20301056 C10.05901705 116.31996286 10.05901705 116.31996286 18.78125 132.91015625 C27.10153279 140.58286986 38.14039988 144.24627457 49.25 145.125 C50.23033203 145.20621094 50.23033203 145.20621094 51.23046875 145.2890625 C63.88486226 145.81138268 76.92587811 142.56972475 86.52734375 134.12109375 C101.10776045 118.94334154 99.53953664 98.87853184 99.4453125 79.32421875 C99.44157596 77.03351465 99.43873202 74.74280894 99.43673706 72.45210266 C99.42915105 66.46318034 99.40954648 60.47435716 99.3873291 54.48547363 C99.36676152 48.35816793 99.35771214 42.230846 99.34765625 36.10351562 C99.32629527 24.11063386 99.29222101 12.11782522 99.25 0.125 C102.22 0.125 105.19 0.125 108.25 0.125 C108.34307814 13.79967707 108.41395599 27.47427757 108.45724869 41.14920807 C108.47803716 47.50046558 108.50619394 53.8515048 108.55175781 60.20263672 C108.59552865 66.34294247 108.61920266 72.48303953 108.62950897 78.62348938 C108.63684461 80.9548114 108.65116773 83.28612327 108.67292023 85.61735535 C108.84124374 104.42113225 108.42553502 122.97277957 94.92578125 137.65234375 C81.04907469 150.74480944 64.49864886 155.53427837 45.66015625 155.34375 C28.50770825 154.24347842 10.8209582 149.05527034 -1.19140625 136.12109375 C-10.6777941 123.97186019 -12.19616088 110.55001863 -12.26171875 95.57421875 C-12.27870245 94.08151364 -12.29691019 92.58882203 -12.31625366 91.09614563 C-12.36382638 87.14625462 -12.39377339 83.19642232 -12.41975784 79.24633789 C-12.44943564 75.17519044 -12.4953191 71.10422185 -12.53881836 67.03320312 C-12.76748467 44.73166213 -12.89519845 22.42748243 -12.75 0.125 C-8.16376697 -0.72819666 -4.61671866 -0.77654484 0 0 Z " fill="#020202" transform="translate(525.75,433.875)"/>
<path d="M0 0 C28.71 0 57.42 0 87 0 C86.67 3.3 86.34 6.6 86 10 C63.6531034 10.2101589 41.33982471 9.55849562 19 9 C19 28.47 19 47.94 19 68 C47.215 67.505 47.215 67.505 76 67 C76 69.97 76 72.94 76 76 C70.16779866 77.26349789 64.41078415 77.12660034 58.4765625 77.09765625 C57.49969482 77.09664917 56.52282715 77.09564209 55.51635742 77.09460449 C51.88589292 77.08939357 48.25544521 77.07543236 44.625 77.0625 C36.49875 77.041875 28.3725 77.02125 20 77 C20 98.78 20 120.56 20 143 C31.694375 142.7834375 31.694375 142.7834375 43.625 142.5625 C46.03506348 142.51939697 48.44512695 142.47629395 50.92822266 142.43188477 C64.63232227 142.17410777 78.31142639 141.70102975 92 141 C92 144.3 92 147.6 92 151 C87.46014518 152.14190108 83.00284389 152.13426649 78.35424805 152.11352539 C77.48137303 152.11364593 76.60849802 152.11376646 75.70917225 152.11389065 C72.89332819 152.11314631 70.07755092 152.10553991 67.26171875 152.09765625 C65.5194095 152.09618535 63.77709982 152.09516555 62.03479004 152.09460449 C55.58568661 152.0893688 49.13659264 152.07540755 42.6875 152.0625 C28.270625 152.041875 13.85375 152.02125 -1 152 C-0.67 101.84 -0.34 51.68 0 0 Z " fill="#010101" transform="translate(1100,434)"/>
<path d="M0 0 C0.57621094 0.495 1.15242187 0.99 1.74609375 1.5 C2.47699219 2.0775 3.20789063 2.655 3.9609375 3.25 C10.1107279 8.26494331 10.1107279 8.26494331 10.74609375 13.5 C7.75937619 16.07189568 5.60751579 17.71616433 1.74609375 18.5 C1.18849365 17.86553955 1.18849365 17.86553955 0.61962891 17.21826172 C-9.40193596 5.57372987 -9.40193596 5.57372987 -22.25390625 -2.5 C-23.14335937 -2.90605469 -24.0328125 -3.31210937 -24.94921875 -3.73046875 C-38.07723838 -8.75202195 -55.40035744 -8.70394489 -68.54296875 -3.75390625 C-84.88468297 3.80472526 -95.69590869 15.51577529 -102.1875 32.3125 C-109.70108932 54.77070105 -108.19940673 80.0685275 -98.25390625 101.5 C-91.05167457 115.05820114 -80.48617948 125.28609758 -65.65234375 129.859375 C-64.86085938 130.07078125 -64.069375 130.2821875 -63.25390625 130.5 C-62.00867188 130.84675781 -60.7634375 131.19351563 -59.48046875 131.55078125 C-43.69624834 135.43178645 -27.560922 131.29802724 -13.77734375 123.2265625 C-6.24476424 118.07269231 -0.02961486 111.5188247 5.74609375 104.5 C8.94675367 105.21567551 10.83937412 105.69009738 12.74609375 108.5 C12.06990809 115.76592225 6.52313728 121.02856413 1.296875 125.6796875 C-17.1377091 139.84317962 -37.80916147 143.28301509 -60.56640625 140.8125 C-79.96630272 137.94956378 -96.79296129 130.02365114 -110.25390625 115.5 C-110.84558594 114.92507813 -111.43726563 114.35015625 -112.046875 113.7578125 C-125.83111346 99.62696843 -130.51326043 80.44526255 -130.50268555 61.21801758 C-130.32341525 49.25333749 -127.46210565 38.27504726 -122.25390625 27.5 C-121.70089844 26.33404297 -121.70089844 26.33404297 -121.13671875 25.14453125 C-111.80117335 6.95631349 -95.06782508 -5.05432066 -76.19140625 -11.875 C-50.78166075 -19.54202601 -21.01290466 -17.22215794 0 0 Z " fill="#020202" transform="translate(470.25390625,447.5)"/>
<path d="M0 0 C40.92 0 81.84 0 124 0 C124 2.97 124 5.94 124 9 C106.33018896 9 88.66336103 8.47738814 71 8 C71.33 55.19 71.66 102.38 72 151 C60 153 60 153 51 151 C51 103.81 51 56.62 51 8 C33.675 8.495 33.675 8.495 16 9 C10.72 9 5.44 9 0 9 C0 6.03 0 3.06 0 0 Z " fill="#000000" transform="translate(945,434)"/>
<path d="M0 0 C0.928125 0.598125 1.85625 1.19625 2.8125 1.8125 C9.38188374 8.38188374 12.27824066 15.99980712 12.375 25.25 C12.24168385 34.9630335 8.95455868 41.86036789 4 50 C3.34 50 2.68 50 2 50 C2 50.66 2 51.32 2 52 C0.6015625 53.18359375 0.6015625 53.18359375 -1.375 54.4375 C-2.00148438 54.84871094 -2.62796875 55.25992188 -3.2734375 55.68359375 C-15.60038237 61.63514163 -23.38902217 60 -38 60 C-38 38.88 -38 17.76 -38 -4 C-9.15101612 -5.92326559 -9.15101612 -5.92326559 0 0 Z " fill="#EDE8E2" transform="translate(736,446)"/>
<path d="M0 0 C0.66 0 1.32 0 2 0 C5.13501187 8.29057123 8.26471685 16.58312024 11.38763428 24.87825489 C12.83784115 28.72980652 14.28987794 32.58064745 15.74609375 36.42993164 C17.15092034 40.14357912 18.55094363 43.85900425 19.94763184 47.57571983 C20.48177838 48.99456055 21.01766286 50.41274823 21.55529785 51.83027077 C22.30707901 53.81329621 23.05268993 55.7985376 23.796875 57.78442383 C24.22323242 58.91471512 24.64958984 60.04500641 25.08886719 61.20954895 C26 64 26 64 26 67 C8.51 67 -8.98 67 -27 67 C-25.16685958 60.88953195 -23.56647702 55.62124142 -21.0390625 49.91796875 C-20.76661713 49.29706863 -20.49417175 48.67616852 -20.21347046 48.03645325 C-19.35610082 46.08434203 -18.49119512 44.13570909 -17.625 42.1875 C-16.48828615 39.62019491 -15.35543754 37.05123031 -14.2265625 34.48046875 C-13.81355896 33.54059113 -13.81355896 33.54059113 -13.39221191 32.58172607 C-11.1417092 27.41749747 -9.09802892 22.18647173 -7.12939453 16.90795898 C-5.58873924 12.941088 -3.82153234 9.09402784 -2.015625 5.2421875 C-0.9122686 2.90910336 -0.9122686 2.90910336 0 0 Z " fill="#E9E5DF" transform="translate(871,458)"/>
<path d="M0 0 C8.91 0 17.82 0 27 0 C26.67 0.66 26.34 1.32 26 2 C17.75 2 9.5 2 1 2 C1.33 21.47 1.66 40.94 2 61 C2.33 61 2.66 61 3 61 C3 81.46 3 101.92 3 123 C2.01 123 1.02 123 0 123 C0 82.41 0 41.82 0 0 Z " fill="#E2DFDB" transform="translate(1016,442)"/>
<path d="M0 0 C0.66 0 1.32 0 2 0 C2.66 2.64 3.32 5.28 4 8 C0.535 9.485 0.535 9.485 -3 11 C-2.44894091 7.0507432 -1.61064629 3.65079826 0 0 Z " fill="#F0EDEA" transform="translate(871,458)"/>
<path d="M0 0 C0.66 0 1.32 0 2 0 C1.01 5.61 0.02 11.22 -1 17 C-3.04379831 12.91240337 -3.18594005 12.01314435 -2.625 7.75 C-2.51414062 6.85796875 -2.40328125 5.9659375 -2.2890625 5.046875 C-2.19367188 4.37140625 -2.09828125 3.6959375 -2 3 C-1.34 3 -0.68 3 0 3 C0 2.01 0 1.02 0 0 Z " fill="#E0DEDB" transform="translate(342,485)"/>
<path d="M0 0 C-0.6875 1.9375 -0.6875 1.9375 -2 4 C-4.91422611 5.07366225 -6.315664 5.31375694 -9.1640625 4.0078125 C-9.76992188 3.67523438 -10.37578125 3.34265625 -11 3 C-9.54293274 2.49632243 -8.08429904 1.99717444 -6.625 1.5 C-5.81289063 1.2215625 -5.00078125 0.943125 -4.1640625 0.65625 C-2 0 -2 0 0 0 Z " fill="#E3E0DD" transform="translate(748,508)"/>
<path d="M0 0 C0.33 0.66 0.66 1.32 1 2 C-0.65 3.98 -2.3 5.96 -4 8 C-4.66 7.01 -5.32 6.02 -6 5 C-5.38125 4.731875 -4.7625 4.46375 -4.125 4.1875 C-1.7004767 3.04443152 -1.7004767 3.04443152 0 0 Z " fill="#E5E1DC" transform="translate(483,561)"/>
<path d="M0 0 C0.99 0.33 1.98 0.66 3 1 C3.25 8.625 3.25 8.625 1 12 C0.67 8.04 0.34 4.08 0 0 Z " fill="#D3D1CD" transform="translate(363,517)"/>
<path d="M0 0 C2.31 0.33 4.62 0.66 7 1 C7 1.99 7 2.98 7 4 C4.69 3.67 2.38 3.34 0 3 C0 2.01 0 1.02 0 0 Z " fill="#E2DEDA" transform="translate(400,586)"/>
<path d="M0 0 C-2.91708924 1.98362069 -4.12380904 1.9876191 -7.75 1.625 C-8.8225 1.41875 -9.895 1.2125 -11 1 C-11 0.67 -11 0.34 -11 0 C-7.01803543 -1.05404945 -4.01804691 -0.84098656 0 0 Z " fill="#E4E0DC" transform="translate(599,576)"/>
</svg>
